HIERARCHY
ROOT Hips
{
  OFFSET -21.7848 93.0946 1805.31
  CHANNELS 6 Xposition Yposition Zposition Zrotation Xrotation Yrotation
  JOINT Spine
  {
    OFFSET 0 8 0
    CHANNELS 6 Xposition Yposition Zposition Zrotation Xrotation Yrotation
    JOINT Spine1
    {
      OFFSET 0 8 0
      CHANNELS 6 Xposition Yposition Zposition Zrotation Xrotation Yrotation
      JOINT Spine2
      {
        OFFSET 0 8 0
        CHANNELS 6 Xposition Yposition Zposition Zrotation Xrotation Yrotation
        JOINT Spine3
        {
          OFFSET 0 8 0
          CHANNELS 6 Xposition Yposition Zposition Zrotation Xrotation Yrotation
          JOINT Neck
          {
            OFFSET 0 17 0
            CHANNELS 6 Xposition Yposition Zposition Zrotation Xrotation Yrotation
            JOINT Head
            {
              OFFSET 0 10.8 0
              CHANNELS 6 Xposition Yposition Zposition Zrotation Xrotation Yrotation
              End Site
              {
                OFFSET 0 20.25 0
              }
            }
          }
          JOINT LeftShoulder
          {
            OFFSET 5 17 0
            CHANNELS 6 Xposition Yposition Zposition Zrotation Xrotation Yrotation
            JOINT LeftShoulder2
            {
              OFFSET 6.45 0 0
              CHANNELS 6 Xposition Yposition Zposition Zrotation Xrotation Yrotation
              JOINT LeftArm
              {
                OFFSET 6.45 0 0
                CHANNELS 6 Xposition Yposition Zposition Zrotation Xrotation Yrotation
                JOINT LeftForeArm
                {
                  OFFSET 0 -32.4 -2
                  CHANNELS 6 Xposition Yposition Zposition Zrotation Xrotation Yrotation
                  JOINT LeftHand
                  {
                    OFFSET 0 -25.65 2
                    CHANNELS 6 Xposition Yposition Zposition Zrotation Xrotation Yrotation
                    JOINT LeftHandThumb1
                    {
                      OFFSET -0.5 -1.5 2.65
                      CHANNELS 6 Xposition Yposition Zposition Zrotation Xrotation Yrotation
                      JOINT LeftHandThumb2
                      {
                        OFFSET 0 -3.8 3.7
                        CHANNELS 6 Xposition Yposition Zposition Zrotation Xrotation Yrotation
                        JOINT LeftHandThumb3
                        {
                          OFFSET 0 -3 2.7
                          CHANNELS 6 Xposition Yposition Zposition Zrotation Xrotation Yrotation
                          End Site
                          {
                            OFFSET 0 -2.3 1.8
                          }
                        }
                      }
                    }
                    JOINT LeftHandIndex
                    {
                      OFFSET 0 -1.9 1.6
                      CHANNELS 6 Xposition Yposition Zposition Zrotation Xrotation Yrotation
                      JOINT LeftHandIndex1
                      {
                        OFFSET 0 -8.3 1.9
                        CHANNELS 6 Xposition Yposition Zposition Zrotation Xrotation Yrotation
                        JOINT LeftHandIndex2
                        {
                          OFFSET 0 -4.5 0
                          CHANNELS 6 Xposition Yposition Zposition Zrotation Xrotation Yrotation
                          JOINT LeftHandIndex3
                          {
                            OFFSET 0 -3.4 0
                            CHANNELS 6 Xposition Yposition Zposition Zrotation Xrotation Yrotation
                            End Site
                            {
                              OFFSET 0 -2.6 0
                            }
                          }
                        }
                      }
                    }
                    JOINT LeftHandMiddle
                    {
                      OFFSET -0.25 -2.2 0.4
                      CHANNELS 6 Xposition Yposition Zposition Zrotation Xrotation Yrotation
                      JOINT LeftHandMiddle1
                      {
                        OFFSET 0 -8.3 1
                        CHANNELS 6 Xposition Yposition Zposition Zrotation Xrotation Yrotation
                        JOINT LeftHandMiddle2
                        {
                          OFFSET 0 -4.65 0
                          CHANNELS 6 Xposition Yposition Zposition Zrotation Xrotation Yrotation
                          JOINT LeftHandMiddle3
                          {
                            OFFSET 0 -3.3 0
                            CHANNELS 6 Xposition Yposition Zposition Zrotation Xrotation Yrotation
                            End Site
                            {
                              OFFSET 0 -2.7 0
                            }
                          }
                        }
                      }
                    }
                    JOINT LeftHandRing
                    {
                      OFFSET -0.5 -2.15 -0.8
                      CHANNELS 6 Xposition Yposition Zposition Zrotation Xrotation Yrotation
                      JOINT LeftHandRing1
                      {
                        OFFSET 0 -7.75 -0.2
                        CHANNELS 6 Xposition Yposition Zposition Zrotation Xrotation Yrotation
                        JOINT LeftHandRing2
                        {
                          OFFSET 0 -3.8 0
                          CHANNELS 6 Xposition Yposition Zposition Zrotation Xrotation Yrotation
                          JOINT LeftHandRing3
                          {
                            OFFSET 0 -3.4 0
                            CHANNELS 6 Xposition Yposition Zposition Zrotation Xrotation Yrotation
                            End Site
                            {
                              OFFSET 0 -2.6 0
                            }
                          }
                        }
                      }
                    }
                    JOINT LeftHandPinky
                    {
                      OFFSET -0.75 -1.75 -1.85
                      CHANNELS 6 Xposition Yposition Zposition Zrotation Xrotation Yrotation
                      JOINT LeftHandPinky1
                      {
                        OFFSET 0 -7.15 -1
                        CHANNELS 6 Xposition Yposition Zposition Zrotation Xrotation Yrotation
                        JOINT LeftHandPinky2
                        {
                          OFFSET 0 -3 0
                          CHANNELS 6 Xposition Yposition Zposition Zrotation Xrotation Yrotation
                          JOINT LeftHandPinky3
                          {
                            OFFSET 0 -2.35 0
                            CHANNELS 6 Xposition Yposition Zposition Zrotation Xrotation Yrotation
                            End Site
                            {
                              OFFSET 0 -2.1 0
                            }
                          }
                        }
                      }
                    }
                  }
                }
              }
            }
          }
          JOINT RightShoulder
          {
            OFFSET -5 17 0
            CHANNELS 6 Xposition Yposition Zposition Zrotation Xrotation Yrotation
            JOINT RightShoulder2
            {
              OFFSET -6.45 0 0
              CHANNELS 6 Xposition Yposition Zposition Zrotation Xrotation Yrotation
              JOINT RightArm
              {
                OFFSET -6.45 0 0
                CHANNELS 6 Xposition Yposition Zposition Zrotation Xrotation Yrotation
                JOINT RightForeArm
                {
                  OFFSET 0 -32.4 -2
                  CHANNELS 6 Xposition Yposition Zposition Zrotation Xrotation Yrotation
                  JOINT RightHand
                  {
                    OFFSET 0 -25.65 2
                    CHANNELS 6 Xposition Yposition Zposition Zrotation Xrotation Yrotation
                    JOINT RightHandThumb1
                    {
                      OFFSET 0.5 -1.5 2.65
                      CHANNELS 6 Xposition Yposition Zposition Zrotation Xrotation Yrotation
                      JOINT RightHandThumb2
                      {
                        OFFSET 0 -3.8 3.7
                        CHANNELS 6 Xposition Yposition Zposition Zrotation Xrotation Yrotation
                        JOINT RightHandThumb3
                        {
                          OFFSET 0 -3 2.7
                          CHANNELS 6 Xposition Yposition Zposition Zrotation Xrotation Yrotation
                          End Site
                          {
                            OFFSET 0 -2.3 1.8
                          }
                        }
                      }
                    }
                    JOINT RightHandIndex
                    {
                      OFFSET 0 -1.9 1.6
                      CHANNELS 6 Xposition Yposition Zposition Zrotation Xrotation Yrotation
                      JOINT RightHandIndex1
                      {
                        OFFSET 0 -8.3 1.9
                        CHANNELS 6 Xposition Yposition Zposition Zrotation Xrotation Yrotation
                        JOINT RightHandIndex2
                        {
                          OFFSET 0 -4.5 0
                          CHANNELS 6 Xposition Yposition Zposition Zrotation Xrotation Yrotation
                          JOINT RightHandIndex3
                          {
                            OFFSET 0 -3.4 0
                            CHANNELS 6 Xposition Yposition Zposition Zrotation Xrotation Yrotation
                            End Site
                            {
                              OFFSET 0 -2.6 0
                            }
                          }
                        }
                      }
                    }
                    JOINT RightHandMiddle
                    {
                      OFFSET 0.25 -2.2 0.4
                      CHANNELS 6 Xposition Yposition Zposition Zrotation Xrotation Yrotation
                      JOINT RightHandMiddle1
                      {
                        OFFSET 0 -8.3 1
                        CHANNELS 6 Xposition Yposition Zposition Zrotation Xrotation Yrotation
                        JOINT RightHandMiddle2
                        {
                          OFFSET 0 -4.65 0
                          CHANNELS 6 Xposition Yposition Zposition Zrotation Xrotation Yrotation
                          JOINT RightHandMiddle3
                          {
                            OFFSET 0 -3.3 0
                            CHANNELS 6 Xposition Yposition Zposition Zrotation Xrotation Yrotation
                            End Site
                            {
                              OFFSET 0 -2.7 0
                            }
                          }
                        }
                      }
                    }
                    JOINT RightHandRing
                    {
                      OFFSET 0.5 -2.15 -0.8
                      CHANNELS 6 Xposition Yposition Zposition Zrotation Xrotation Yrotation
                      JOINT RightHandRing1
                      {
                        OFFSET 0 -7.75 -0.2
                        CHANNELS 6 Xposition Yposition Zposition Zrotation Xrotation Yrotation
                        JOINT RightHandRing2
                        {
                          OFFSET 0 -3.8 0
                          CHANNELS 6 Xposition Yposition Zposition Zrotation Xrotation Yrotation
                          JOINT RightHandRing3
                          {
                            OFFSET 0 -3.4 0
                            CHANNELS 6 Xposition Yposition Zposition Zrotation Xrotation Yrotation
                            End Site
                            {
                              OFFSET 0 -2.6 0
                            }
                          }
                        }
                      }
                    }
                    JOINT RightHandPinky
                    {
                      OFFSET 0.75 -1.75 -1.85
                      CHANNELS 6 Xposition Yposition Zposition Zrotation Xrotation Yrotation
                      JOINT RightHandPinky1
                      {
                        OFFSET 0 -7.15 -1
                        CHANNELS 6 Xposition Yposition Zposition Zrotation Xrotation Yrotation
                        JOINT RightHandPinky2
                        {
                          OFFSET 0 -3 0
                          CHANNELS 6 Xposition Yposition Zposition Zrotation Xrotation Yrotation
                          JOINT RightHandPinky3
                          {
                            OFFSET 0 -2.35 0
                            CHANNELS 6 Xposition Yposition Zposition Zrotation Xrotation Yrotation
                            End Site
                            {
                              OFFSET 0 -2.1 0
                            }
                          }
                        }
                      }
                    }
                  }
                }
              }
            }
          }
        }
      }
    }
  }
  JOINT LeftUpLeg
  {
    OFFSET 8 0 0
    CHANNELS 6 Xposition Yposition Zposition Zrotation Xrotation Yrotation
    JOINT LeftLeg
    {
      OFFSET 0 -45 -1
      CHANNELS 6 Xposition Yposition Zposition Zrotation Xrotation Yrotation
      JOINT LeftFoot
      {
        OFFSET 0 -41 -2
        CHANNELS 6 Xposition Yposition Zposition Zrotation Xrotation Yrotation
        JOINT LeftToeBase
        {
          OFFSET 0 -7.5 12.5
          CHANNELS 6 Xposition Yposition Zposition Zrotation Xrotation Yrotation
          JOINT LeftFootToe
          {
            OFFSET 0 0 4
            CHANNELS 6 Xposition Yposition Zposition Zrotation Xrotation Yrotation
            End Site
            {
              OFFSET 0 0 0
            }
          }
        }
      }
    }
  }
  JOINT RightUpLeg
  {
    OFFSET -8 0 0
    CHANNELS 6 Xposition Yposition Zposition Zrotation Xrotation Yrotation
    JOINT RightLeg
    {
      OFFSET 0 -45 -1
      CHANNELS 6 Xposition Yposition Zposition Zrotation Xrotation Yrotation
      JOINT RightFoot
      {
        OFFSET 0 -41 -2
        CHANNELS 6 Xposition Yposition Zposition Zrotation Xrotation Yrotation
        JOINT RightToeBase
        {
          OFFSET 0 -7.5 12.5
          CHANNELS 6 Xposition Yposition Zposition Zrotation Xrotation Yrotation
          JOINT RightFootToe
          {
            OFFSET 0 0 4
            CHANNELS 6 Xposition Yposition Zposition Zrotation Xrotation Yrotation
            End Site
            {
              OFFSET 0 0 0
            }
          }
        }
      }
    }
  }
}
MOTION
Frames:	3
Frame Time:	0.0111111
-310.363 78.1329 1159.62 0.0239259 -0.0197824 -174.711 -5.68434e-14 8 2.27374e-13 2.92191 21.3915 1.04617 0 8 0 2.87594 7.30217 -1.59008 0 8 2.27374e-13 1.41138 3.66542 -0.748509 5.68434e-14 8 1.13687e-13 1.40791 3.65653 -0.746612 -1.13687e-13 17 0 3.75339 -1.76568 -11.9293 -2.84217e-14 10.8 1.13687e-13 8.11416 -5.30909 -27.9105 5 17 -1.13687e-13 1.07182 -2.68412 -6.80616 6.45 0 0 -0.66364 0.263162 3.50873 6.45 0 -1.13687e-13 41.5596 31.2179 52.2062 0 -32.4 -2 -144.759 -17.2582 -114.717 0 -25.65 2 -8.77259 -16.6334 -37.7405 -0.5 -1.5 2.65 -1.43072 29.9894 -17.1696 0 -3.8 3.7 -0.167626 26.9749 0.0250259 -5.68434e-14 -3 2.7 -0.0529345 1.79676 0.109833 5.68434e-14 -1.9 1.6 -8.82781e-32 3.18055e-15 1.59028e-15 0 -8.3 1.9 -18.0581 -27.9622 -4.15336 -1.13687e-13 -4.5 0 -31.8041 0.0592956 -0.00655411 1.13687e-13 -3.4 1.13687e-13 -23.1507 0.0347983 0.00694886 -0.25 -2.2 0.4 -8.82781e-32 3.18055e-15 1.59028e-15 5.68434e-14 -8.3 1 -6.81958 -6.04863 0.163932 0 -4.65 5.68434e-14 -55.7342 0.0570227 0.0802465 -2.27374e-13 -3.3 5.68434e-14 -90.0002 -1.90833e-14 1.21259e-14 -0.5 -2.15 -0.8 -8.82781e-32 3.18055e-15 1.59028e-15 0 -7.75 -0.2 -74.1443 -1.28922 9.6431 0 -3.8 0 -1.77353 0.000382703 0.000577828 2.27374e-13 -3.4 2.84217e-14 14.1055 0.000473022 0.00160217 -0.75 -1.75 -1.85 -8.82781e-32 3.18055e-15 1.59028e-15 0 -7.15 -1 -54.2284 24.5844 17.4535 0 -3 2.84217e-14 -1.41974e-08 0.00049034 0.00165895 2.27374e-13 -2.35 -2.84217e-14 -1.27457e-08 0.000472912 0.00154421 -5 17 -1.13687e-13 9.30924 -7.42753 -4.94206 -6.45 0 0 -1.52004 0.823965 -5.73873 -6.45 -1.13687e-13 0 -38.7072 -9.82786 -16.3227 0 -32.4 -2 -0.627143 -19.9175 2.27028 0 -25.65 2 -18.7779 -11.343 3.46026 0.5 -1.5 2.65 0.873889 -7.53847 5.86574 -2.84217e-14 -3.8 3.7 0.434082 24.567 -0.16278 0 -3 2.7 0.0436186 7.02377 -0.0219046 0 -1.9 1.6 -1.30111e-14 0 1.71452e-15 0 -8.3 1.9 1.32871 -9.59337 0.0571594 1.42109e-14 -4.5 2.27374e-13 4.28342e-08 -0.00211093 0.00116262 -1.42109e-14 -3.4 0 -6.82075e-08 0.00353592 0.00110523 0.25 -2.2 0.4 -1.30111e-14 0 1.71452e-15 0 -8.3 1 1.22698 -9.13459 0.0277845 0 -4.65 0 1.36855e-08 -0.000704171 0.00111354 1.42109e-14 -3.3 0 -1.21139e-08 -0.000692385 -0.00100244 0.5 -2.15 -0.8 -1.30111e-14 0 1.71452e-15 1.42109e-14 -7.75 -0.2 0.868044 -7.7014 -0.0365885 -2.84217e-14 -3.8 -2.27374e-13 -6.24308e-15 0 9.73145e-05 -1.42109e-14 -3.4 0 -4.28629e-15 0 -0.000605268 0.75 -1.75 -1.85 -1.30111e-14 0 1.71452e-15 1.42109e-14 -7.15 -1 0.738892 -7.20162 -0.0673301 0 -3 0 2.45953e-09 0.000422714 -0.00033337 0 -2.35 0 4.24929e-09 0.000434781 -0.000559974 8 0 0 7.26397 -51.9298 13.0812 0 -45 -1 0.445998 45.6748 -1.23002 0 -41 -2 0.373238 2.13034 8.80597 0 -7.5 12.5 -1.98785e-16 0 3.18055e-15 1.13687e-13 1.42109e-14 4 -3.80728 0.750534 -16.1713 -8 0 2.27374e-13 -48.7177 -22.7518 -64.0771 0 -45 -1 -13.6458 64.4051 22.9923 0 -41 -2 3.50008 4.50085 15.5645 0 -7.5 12.5 -1.59028e-15 -19.9019 -0 -2.84217e-14 -2.22045e-16 4 -18.9407 16.1373 71.7309 
-310.551 77.5552 1160.42 0.013873 -0.0055865 -174.202 1.13687e-13 8 0 3.06997 20.915 1.19932 5.68434e-14 8 2.27374e-13 2.77585 7.37189 -1.63047 -5.68434e-14 8 0 1.36045 3.70028 -0.769825 0 8 -1.13687e-13 1.35707 3.69124 -0.767855 5.68434e-14 17 0 3.7515 -1.76861 -11.9848 -2.84217e-14 10.8 0 8.10506 -5.32091 -28.0436 5 17 0 1.00396 -2.70969 -6.74674 6.45 1.13687e-13 0 -0.665414 0.268158 3.52822 6.45 0 0 42.1525 30.6966 52.5553 0 -32.4 -2 -145.242 -18.6275 -115.353 5.68434e-14 -25.65 2 -9.29121 -16.6749 -35.1629 -0.5 -1.5 2.65 -1.91276 30.5008 -18.3844 0 -3.8 3.7 -0.228614 26.3633 0.0356762 0 -3 2.7 -0.106545 -0.48444 0.131861 0 -1.9 1.6 -0 0 6.36111e-15 -5.68434e-14 -8.3 1.9 -17.8477 -28.0385 -4.10431 -1.13687e-13 -4.5 0 -30.5132 0.0647601 -0.00402428 0 -3.4 0 -22.3715 0.0368615 0.00769947 -0.25 -2.2 0.4 -0 0 6.36111e-15 5.68434e-14 -8.3 1 -6.67567 -6.57296 0.144878 5.68434e-14 -4.65 0 -53.7223 0.0443388 0.067709 0 -3.3 5.68434e-14 -90.0002 -4.13472e-14 4.1869e-14 -0.5 -2.15 -0.8 -0 0 6.36111e-15 5.68434e-14 -7.75 -0.2 -74.2185 -1.61832 9.45189 0 -3.8 0 -1.77353 0.000381244 0.000576321 0 -3.4 -2.84217e-14 14.0718 0.000259399 0.00161743 -0.75 -1.75 -1.85 -0 0 6.36111e-15 5.68434e-14 -7.15 -1 -54.5627 24.8567 17.7748 0 -3 0 -1.40071e-08 0.000478708 0.00167648 0 -2.35 0 -1.25738e-08 0.00046193 0.00155961 -5 17 1.13687e-13 9.31073 -7.36076 -4.80615 -6.45 1.13687e-13 0 -1.55199 0.845019 -5.88531 -6.45 0 -2.27374e-13 -38.4976 -9.68458 -16.2525 2.84217e-14 -32.4 -2 -0.739926 -19.7248 2.35578 2.84217e-14 -25.65 2 -18.4614 -11.4617 3.88104 0.5 -1.5 2.65 0.939196 -7.56151 5.89776 -2.84217e-14 -3.8 3.7 0.430653 24.3693 -0.160106 2.84217e-14 -3 2.7 0.0369656 6.58399 -0.0218456 -1.42109e-14 -1.9 1.6 1.00635e-15 0 9.93923e-17 1.42109e-14 -8.3 1.9 1.36884 -9.75119 0.0618849 -2.84217e-14 -4.5 -1.13687e-13 4.24739e-08 -0.00195673 0.00124369 2.84217e-14 -3.4 0 -7.46501e-08 0.00361366 0.0011836 0.25 -2.2 0.4 1.00635e-15 0 9.93923e-17 0 -8.3 1 1.26334 -9.28173 0.0294181 0 -4.65 0 1.62368e-08 -0.000705414 0.0013188 0 -3.3 0 -1.1815e-08 -0.000692949 -0.000976911 0.5 -2.15 -0.8 1.00635e-15 0 9.93923e-17 -1.42109e-14 -7.75 -0.2 0.894799 -7.81939 -0.037435 0 -3.8 0 3.57812e-15 0 1.6225e-05 -2.84217e-14 -3.4 2.27374e-13 4.96962e-15 0 -0.000618869 0.75 -1.75 -1.85 1.00635e-15 0 9.93923e-17 1.42109e-14 -7.15 -1 0.763601 -7.31705 -0.0682903 0 -3 0 1.19961e-09 0.000309251 -0.000222254 -2.84217e-14 -2.35 0 2.40747e-09 0.000325649 -0.000423578 8 0 2.27374e-13 7.23798 -52.4383 12.2798 0 -45 -1 0.243421 45.8403 -0.68255 1.13687e-13 -41 -2 0.36827 2.34438 9.05322 0 -7.5 12.5 0 7.95139e-16 -0 0 0 4 -4.40107 0.885358 -16.1779 -8 1.42109e-14 0 -49.7898 -22.9944 -65.1541 0 -45 -1 -14.5063 65.2242 24.0059 0 -41 -2 3.42534 4.60065 15.5505 2.84217e-14 -7.5 12.5 1.59028e-15 -19.7753 -0 -8.52651e-14 -1.11022e-16 4 -19.1626 15.9734 71.7866 
-310.735 76.9926 1161.16 0.00792832 0.00785705 -173.748 0 8 0 3.22255 20.4244 1.3185 -1.13687e-13 8 2.27374e-13 2.67426 7.43365 -1.65724 0 8 1.13687e-13 1.309 3.73102 -0.784442 0 8 0 1.30572 3.72185 -0.782421 5.68434e-14 17 0 3.73075 -1.75899 -12.0254 -2.84217e-14 10.8 -2.27374e-13 8.05703 -5.29608 -28.1424 5 17 0 0.936751 -2.73299 -6.69774 6.45 0 0 -0.668299 0.27517 3.55535 6.45 0 -1.13687e-13 42.7427 30.2021 52.6326 -5.68434e-14 -32.4 -2 -145.743 -20.0324 -116.297 -5.68434e-14 -25.65 2 -9.82421 -16.8154 -32.6654 -0.5 -1.5 2.65 -2.70456 31.2151 -19.5797 0 -3.8 3.7 -0.299349 25.6998 0.0393759 5.68434e-14 -3 2.7 -0.141019 -2.65523 0.135204 0 -1.9 1.6 -3.18055e-15 0 3.18055e-15 -5.68434e-14 -8.3 1.9 -17.8498 -28.1056 -4.11168 0 -4.5 0 -29.3522 0.0499349 0.000623151 -1.13687e-13 -3.4 0 -21.6758 0.0278994 0.0088414 -0.25 -2.2 0.4 -3.18055e-15 0 3.18055e-15 -5.68434e-14 -8.3 1 -6.52581 -6.96473 0.131036 -5.68434e-14 -4.65 0 -52.1517 0.0247813 0.04243 2.27374e-13 -3.3 0 -90.0002 -2.22639e-14 4.57205e-15 -0.5 -2.15 -0.8 -3.18055e-15 0 3.18055e-15 -5.68434e-14 -7.75 -0.2 -74.3579 -2.05596 9.21402 -2.27374e-13 -3.8 5.68434e-14 -1.77353 0.000379787 0.000574813 2.27374e-13 -3.4 5.68434e-14 14.0756 -5.2181e-15 0.00166321 -0.75 -1.75 -1.85 -3.18055e-15 0 3.18055e-15 5.68434e-14 -7.15 -1 -55.2768 24.9383 18.1436 -2.27374e-13 -3 0 -1.38107e-08 0.000467056 0.00169422 2.27374e-13 -2.35 -5.68434e-14 -1.23966e-08 0.000450918 0.00157517 -5 17 0 9.30153 -7.26885 -4.67432 -6.45 0 0 -1.58808 0.860428 -6.00692 -6.45 -1.13687e-13 0 -38.2741 -9.57187 -16.205 2.84217e-14 -32.4 -2 -0.856192 -19.5598 2.44101 -1.42109e-14 -25.65 2 -18.1297 -11.6002 4.37406 0.5 -1.5 2.65 0.963221 -7.58601 5.81738 0 -3.8 3.7 0.423745 24.2788 -0.157712 0 -3 2.7 0.031024 6.13872 -0.0217844 2.84217e-14 -1.9 1.6 3.57812e-15 -1.59028e-15 -7.95139e-16 2.84217e-14 -8.3 1.9 1.40353 -9.88595 0.0665023 2.84217e-14 -4.5 -1.13687e-13 4.17651e-08 -0.00180077 0.00132886 0 -3.4 -1.13687e-13 -8.16264e-08 0.00369471 0.00126582 0.25 -2.2 0.4 3.57812e-15 -1.59028e-15 -7.95139e-16 2.84217e-14 -8.3 1 1.29459 -9.40746 0.0309272 0 -4.65 0 1.85011e-08 -0.000694572 0.00152617 0 -3.3 -1.13687e-13 -1.13105e-08 -0.000681738 -0.000950578 0.5 -2.15 -0.8 3.57812e-15 -1.59028e-15 -7.95139e-16 -2.84217e-14 -7.75 -0.2 0.91841 -7.92244 -0.0382657 -2.84217e-14 -3.8 -2.27374e-13 5.06901e-15 0 -5.30672e-05 0 -3.4 -2.27374e-13 3.4787e-15 -3.18055e-15 -0.000621324 0.75 -1.75 -1.85 3.57812e-15 -1.59028e-15 -7.95139e-16 0 -7.15 -1 0.785718 -7.41961 -0.0691415 0 -3 0 3.4357e-10 0.000195579 -0.000100652 0 -2.35 0 1.02719e-09 0.00021613 -0.000272305 8 0 0 7.34631 -52.9178 11.7594 1.13687e-13 -45 -1 0.0551295 46.0042 -0.1785 0 -41 -2 0.368465 2.59545 9.16785 -1.13687e-13 -7.5 12.5 3.97569e-16 -1.59028e-15 -0 0 0 4 -4.93064 1.00135 -16.18 -8 1.42109e-14 -2.27374e-13 -50.8318 -23.2044 -66.2026 0 -45 -1 -15.3839 66 25.0255 -1.13687e-13 -41 -2 3.33384 4.71764 15.5513 -2.84217e-14 -7.5 12.5 1.13684e-15 -19.6686 3.37762e-15 0 -2.77556e-17 4 -19.3818 15.7881 71.85 
